<?xml version="1.0" encoding="UTF-8"?>
<svg version="1.1" xmlns="http://www.w3.org/2000/svg" width="704" height="469">
<path d="M0 0 C1.18239258 0.00676758 1.18239258 0.00676758 2.38867188 0.01367188 C4.32164761 0.02538688 6.25458393 0.04332002 8.1875 0.0625 C8.21462153 1.979088 8.23395097 3.8957873 8.25 5.8125 C8.26160156 6.87984375 8.27320312 7.9471875 8.28515625 9.046875 C8.20260087 11.59618501 7.93367558 13.64183591 7.1875 16.0625 C6.11371094 16.16046875 5.03992188 16.2584375 3.93359375 16.359375 C2.49730755 16.50957486 1.06111417 16.66066414 -0.375 16.8125 C-1.07947266 16.874375 -1.78394531 16.93625 -2.50976562 17 C-7.83867828 17.58937283 -11.39197119 18.98638734 -15.8125 22.0625 C-17.39131564 23.96517274 -17.39131564 23.96517274 -18.1875 26.0625 C-18.48398437 26.7225 -18.78046875 27.3825 -19.0859375 28.0625 C-20.58283934 32.18300399 -20.94070221 35.75934647 -20.9453125 40.15625 C-20.94660156 41.3525 -20.94789062 42.54875 -20.94921875 43.78125 C-20.94341797 45.65296875 -20.94341797 45.65296875 -20.9375 47.5625 C-20.94136719 48.779375 -20.94523437 49.99625 -20.94921875 51.25 C-20.94213004 57.8850337 -20.66082524 64.39864369 -20.04833984 71.00292969 C-19.60079416 76.80897781 -19.58711155 82.6168676 -19.5625 88.4375 C-19.541875 89.64921875 -19.52125 90.8609375 -19.5 92.109375 C-19.43482955 107.39184652 -22.0944075 121.46063218 -33.0625 132.6875 C-34.96443518 134.49360123 -36.47000908 135.89125454 -38.8125 137.0625 C-38.8125 137.7225 -38.8125 138.3825 -38.8125 139.0625 C-37.64620548 140.13110995 -36.42744068 141.1427998 -35.1875 142.125 C-26.26477051 149.76854172 -21.87028624 159.5190932 -20.9597168 171.17895508 C-20.27570267 184.57678403 -21.17427799 197.58643574 -22.8125 210.875 C-26.67472776 234.80510623 -26.67472776 234.80510623 -19.8125 257.0625 C-19.8125 257.7225 -19.8125 258.3825 -19.8125 259.0625 C-12.80194502 263.1519904 -4.70605395 263.47048345 3.1875 264.0625 C3.6825 271.4875 3.6825 271.4875 4.1875 279.0625 C-2.60277417 282.45763709 -14.32109911 280.30605095 -21.25390625 278.1015625 C-32.00005351 273.73747827 -40.64973914 266.53143174 -45.8125 256.0625 C-54.08636398 236.06732871 -51.69980049 216.37526044 -49.3125 195.5 C-48.83673917 191.33278211 -48.36926307 187.16474494 -47.90625 182.99609375 C-47.7968811 182.06244492 -47.68751221 181.12879608 -47.5748291 180.16685486 C-45.59930247 166.09908616 -45.59930247 166.09908616 -49.8125 153.0625 C-54.3534597 149.41742241 -58.63257833 148.03799809 -64.1875 146.8125 C-65.29158203 146.55339844 -65.29158203 146.55339844 -66.41796875 146.2890625 C-68.21363016 145.8692975 -70.01274377 145.46434581 -71.8125 145.0625 C-71.83935412 142.75006208 -71.85882841 140.4375373 -71.875 138.125 C-71.88660156 136.83722656 -71.89820312 135.54945313 -71.91015625 134.22265625 C-71.8125 131.0625 -71.8125 131.0625 -70.8125 130.0625 C-67.75552167 129.47070518 -64.69804012 128.92063955 -61.62304688 128.43164062 C-55.85202399 127.38909651 -51.53883199 125.38411888 -48 120.625 C-42.64304196 109.06524843 -46.38026387 93.21992125 -47.53076172 80.91577148 C-49.59318931 58.65698666 -51.2128273 34.6663165 -37.125 15.75 C-30.77429716 8.32493014 -23.32682058 3.35723409 -13.8125 1.0625 C-13.08289062 0.87558594 -12.35328125 0.68867187 -11.6015625 0.49609375 C-7.72359023 -0.10678429 -3.91735425 -0.04268701 0 0 Z " fill="#18E4DD" transform="translate(73.8125,99.9375)"/>
<path d="M0 0 C13.00191005 0 23.5510327 3.34406389 33.25 12.3125 C44.79672121 25.10574226 47.80360246 41.88571357 47.0234375 58.55859375 C46.26941661 70.79078416 44.95902679 82.96597 43.21606445 95.09594727 C40.96978656 109.68891214 40.96978656 109.68891214 45.25 123.3125 C50.55301301 127.67275514 56.69090246 128.44715425 63.3359375 129.69921875 C66.25 130.3125 66.25 130.3125 67.25 131.3125 C67.32271741 133.66563555 67.33370868 136.02083668 67.3125 138.375 C67.30347656 139.66535156 67.29445313 140.95570313 67.28515625 142.28515625 C67.27355469 143.28417969 67.26195312 144.28320312 67.25 145.3125 C66.15300781 145.56644531 65.05601562 145.82039062 63.92578125 146.08203125 C62.47124786 146.42924245 61.01682658 146.77692358 59.5625 147.125 C58.4806543 147.3734668 58.4806543 147.3734668 57.37695312 147.62695312 C51.715339 148.99711545 47.65569931 150.47728145 44 155.25 C37.62515691 166.4059754 41.70586189 183.71737717 42.75 196.0625 C44.83685551 220.94136584 46.537377 246.50719075 29.5625 267 C21.3593394 275.785815 11.16319166 280.06845109 -0.8125 280.5234375 C-4.46734115 280.58620739 -8.10136543 280.56313276 -11.75 280.3125 C-12.75 279.3125 -12.75 279.3125 -12.8828125 276.1875 C-12.88023437 274.90875 -12.87765625 273.63 -12.875 272.3125 C-12.87757813 271.03375 -12.88015625 269.755 -12.8828125 268.4375 C-12.75 265.3125 -12.75 265.3125 -11.75 264.3125 C-8.69027923 263.89749472 -5.63283841 263.54401172 -2.56054688 263.23828125 C3.04626009 262.58516849 7.35454575 261.15379841 11.4375 257.1875 C16.56775008 249.04986195 16.66160271 240.97585809 16.5 231.5625 C16.49226562 229.78359375 16.49226562 229.78359375 16.484375 227.96875 C16.43453228 222.26175901 16.23239918 216.60892276 15.75 210.921875 C15.17789737 204.07120611 15.02934704 197.24383766 15.00976562 190.37402344 C15.00000734 188.31405 14.96881202 186.25505634 14.9375 184.1953125 C14.81089882 168.40293505 17.7537342 154.71480125 29 143.125 C32.92600701 139.3125 32.92600701 139.3125 35.25 139.3125 C34.59 138.673125 33.93 138.03375 33.25 137.375 C32.24670091 136.3574089 31.24723181 135.33603769 30.25 134.3125 C29.59902344 133.65765625 28.94804688 133.0028125 28.27734375 132.328125 C17.15158164 120.5992842 15.63585982 106.28385973 15.9140625 90.65625 C16.287846 80.99538404 17.59571767 71.38171672 18.82666016 61.79882812 C21.78413734 41.21597518 21.78413734 41.21597518 15.0625 22.25 C7.84528859 17.27814325 0.80760612 16.72611763 -7.75 16.3125 C-7.94389096 13.8336787 -8.13040123 11.35469069 -8.3125 8.875 C-8.36857422 8.16794922 -8.42464844 7.46089844 -8.48242188 6.73242188 C-8.61190993 4.92822163 -8.68521608 3.12018048 -8.75 1.3125 C-6.72321501 -0.71428499 -2.76821908 0.02373607 0 0 Z " fill="#18E4DD" transform="translate(633.75,99.6875)"/>
<path d="M0 0 C11.88 0 23.76 0 36 0 C36 1.32 36 2.64 36 4 C33.36 4.99 30.72 5.98 28 7 C27.67 13.93 27.34 20.86 27 28 C35.58 28 44.16 28 53 28 C52.87625 24.74125 52.7525 21.4825 52.625 18.125 C52.59100098 17.09906738 52.55700195 16.07313477 52.52197266 15.01611328 C52.4863623 14.20899902 52.45075195 13.40188477 52.4140625 12.5703125 C52.3826416 11.74289551 52.3512207 10.91547852 52.31884766 10.06298828 C52.17400863 7.78013915 52.17400863 7.78013915 50 6 C48.01643517 5.28591666 46.01684563 4.61382258 44 4 C44 2.68 44 1.36 44 0 C55.88 0 67.76 0 80 0 C80 1.32 80 2.64 80 4 C77.36 4.99 74.72 5.98 72 7 C72 23.5 72 40 72 57 C74.64 57.99 77.28 58.98 80 60 C80 61.32 80 62.64 80 64 C68.12 64 56.24 64 44 64 C44 62.68 44 61.36 44 60 C45.134375 59.690625 46.26875 59.38125 47.4375 59.0625 C50.78775099 58.37075469 50.78775099 58.37075469 52 57 C52.15764405 55.22130274 52.25100677 53.43681524 52.31640625 51.65234375 C52.35451416 50.68031006 52.39262207 49.70827637 52.43188477 48.70678711 C52.47498779 47.46292236 52.51809082 46.21905762 52.5625 44.9375 C52.706875 40.998125 52.85125 37.05875 53 33 C44.42 33 35.84 33 27 33 C27.144375 36.75375 27.28875 40.5075 27.4375 44.375 C27.48060303 45.55755371 27.52370605 46.74010742 27.56811523 47.95849609 C27.6252771 49.35189209 27.6252771 49.35189209 27.68359375 50.7734375 C27.72025146 51.72653809 27.75690918 52.67963867 27.79467773 53.66162109 C27.85763465 56.02132349 27.85763465 56.02132349 29 58 C31.3140622 58.73075648 33.64828869 59.40138258 36 60 C36 61.32 36 62.64 36 64 C24.12 64 12.24 64 0 64 C0 62.68 0 61.36 0 60 C2.64 59.67 5.28 59.34 8 59 C8 41.84 8 24.68 8 7 C5.36 6.01 2.72 5.02 0 4 C0 2.68 0 1.36 0 0 Z " fill="#F3F3F3" transform="translate(331,146)"/>
<path d="M0 0 C5.40766124 -0.09940554 10.81478228 -0.17172051 16.22314453 -0.21972656 C18.06015293 -0.23975373 19.89709829 -0.26698382 21.73388672 -0.30175781 C24.38525002 -0.35067065 27.03576541 -0.37305763 29.6875 -0.390625 C30.49928711 -0.41127014 31.31107422 -0.43191528 32.14746094 -0.45318604 C37.84226222 -0.45539127 42.27872833 0.71544423 47 4 C49.68643232 7.58190976 50 9.51446038 50 14 C49.20194293 18.53678096 47.27080662 20.8035299 44 24 C42.35124611 25.02926595 40.68703851 26.03476488 39 27 C40.72498532 29.23251165 42.4547874 31.46099768 44.1875 33.6875 C44.67025391 34.31333984 45.15300781 34.93917969 45.65039062 35.58398438 C50.94938933 42.87803741 50.94938933 42.87803741 58.625 46.875 C61.99268493 47.19750694 61.99268493 47.19750694 65 46 C65 32.8 65 19.6 65 6 C62.69 5.01 60.38 4.02 58 3 C58 2.01 58 1.02 58 0 C67.9 0 77.8 0 88 0 C88 0.99 88 1.98 88 3 C87.030625 3.28875 86.06125 3.5775 85.0625 3.875 C81.89335797 4.64214682 81.89335797 4.64214682 81 7 C80.90099726 9.74816651 80.86016973 12.47043638 80.8671875 15.21875 C80.86575241 16.43927063 80.86575241 16.43927063 80.86428833 17.68444824 C80.86360737 19.40600665 80.86545583 21.12756761 80.86962891 22.84912109 C80.87497835 25.48931629 80.86968111 28.12934136 80.86328125 30.76953125 C80.86394205 32.44010454 80.86522324 34.11067773 80.8671875 35.78125 C80.86415115 36.97034973 80.86415115 36.97034973 80.86105347 38.18347168 C80.78432922 42.22237586 80.78432922 42.22237586 82 46 C83.97888961 46.72693904 85.97954558 47.39816251 88 48 C88 48.99 88 49.98 88 51 C81.10131163 51.43422328 74.20617381 51.72991761 67.296875 51.93383789 C64.95243792 52.01888183 62.60889097 52.13457931 60.26757812 52.2824707 C41.31043378 53.44912631 41.31043378 53.44912631 35.75756836 49.34100342 C32.02224479 45.37254543 29.35277551 40.91074371 27.0335083 35.99778748 C25.84202664 33.55974932 25.84202664 33.55974932 23 30 C22.67 35.28 22.34 40.56 22 46 C24.31 46.66 26.62 47.32 29 48 C29 48.99 29 49.98 29 51 C19.43 51 9.86 51 0 51 C0 50.01 0 49.02 0 48 C1.98 47.34 3.96 46.68 6 46 C6.33 32.47 6.66 18.94 7 5 C4.69 4.34 2.38 3.68 0 3 C0 2.01 0 1.02 0 0 Z M22 4 C22 10.93 22 17.86 22 25 C28.94918718 24.32869065 28.94918718 24.32869065 33 20 C34.39268276 15.82195172 34.66403661 11.88995034 33.1875 7.6875 C31.94032008 5.69932522 31.94032008 5.69932522 29 4 C26.69 4 24.38 4 22 4 Z " fill="#F0F0F0" transform="translate(403,247)"/>
<path d="M0 0 C3.46679688 0.04882812 3.46679688 0.04882812 6.93359375 0.09765625 C10.01629664 6.5305071 12.73703794 13.06005689 15.2734375 19.72265625 C15.86764192 21.26830477 16.46204567 22.81387667 17.05664062 24.359375 C17.97299199 26.74322196 18.88266239 29.12871238 19.77416992 31.52197266 C20.65060515 33.86753691 21.55318023 36.20156638 22.4609375 38.53515625 C22.72051743 39.25074707 22.98009735 39.96633789 23.24754333 40.70361328 C24.71429127 44.40245419 25.7115079 45.96147551 29.15063477 48.0703125 C30.06901123 48.40933594 30.9873877 48.74835938 31.93359375 49.09765625 C31.93359375 50.08765625 31.93359375 51.07765625 31.93359375 52.09765625 C22.36359375 52.09765625 12.79359375 52.09765625 2.93359375 52.09765625 C2.93359375 51.10765625 2.93359375 50.11765625 2.93359375 49.09765625 C6.39859375 48.60265625 6.39859375 48.60265625 9.93359375 48.09765625 C9.64484375 47.32679688 9.35609375 46.5559375 9.05859375 45.76171875 C8.68734375 44.75882812 8.31609375 43.7559375 7.93359375 42.72265625 C7.56234375 41.72492188 7.19109375 40.7271875 6.80859375 39.69921875 C5.93359375 37.09765625 5.93359375 37.09765625 5.93359375 35.09765625 C-1.98640625 35.59265625 -1.98640625 35.59265625 -10.06640625 36.09765625 C-11.05640625 39.39765625 -12.04640625 42.69765625 -13.06640625 46.09765625 C-10.75640625 47.08765625 -8.44640625 48.07765625 -6.06640625 49.09765625 C-6.06640625 50.08765625 -6.06640625 51.07765625 -6.06640625 52.09765625 C-29.49640625 52.09765625 -52.92640625 52.09765625 -77.06640625 52.09765625 C-76.20540118 48.65363597 -75.7475209 47.32792405 -73.80078125 44.62109375 C-73.32906494 43.95899902 -72.85734863 43.2969043 -72.37133789 42.61474609 C-71.85821045 41.90785645 -71.34508301 41.2009668 -70.81640625 40.47265625 C-70.28716553 39.73354004 -69.7579248 38.99442383 -69.21264648 38.23291016 C-67.50361208 35.84983038 -65.78558649 33.47342466 -64.06640625 31.09765625 C-62.89556866 29.47284694 -61.7249948 27.84784755 -60.5546875 26.22265625 C-58.36595799 23.18590182 -56.17323209 20.15210874 -53.9765625 17.12109375 C-51.32322576 13.458345 -48.69112372 9.78096143 -46.06640625 6.09765625 C-54.85931927 5.12255496 -54.85931927 5.12255496 -63.0703125 7.2578125 C-64.9780418 9.59612646 -66.17478924 12.30539031 -67.56640625 14.97265625 C-68.06140625 15.67390625 -68.55640625 16.37515625 -69.06640625 17.09765625 C-70.71640625 17.09765625 -72.36640625 17.09765625 -74.06640625 17.09765625 C-73.73640625 11.81765625 -73.40640625 6.53765625 -73.06640625 1.09765625 C-57.88640625 1.09765625 -42.70640625 1.09765625 -27.06640625 1.09765625 C-28.1911228 6.72123902 -28.1911228 6.72123902 -30.55078125 9.890625 C-31.06777588 10.59477539 -31.58477051 11.29892578 -32.11743164 12.02441406 C-32.67809326 12.77045898 -33.23875488 13.51650391 -33.81640625 14.28515625 C-34.99760383 15.88786756 -36.17858698 17.49073692 -37.359375 19.09375 C-37.96958496 19.91601074 -38.57979492 20.73827148 -39.20849609 21.58544922 C-42.21415266 25.64960244 -45.17073859 29.74888249 -48.12890625 33.84765625 C-48.66418945 34.5852417 -49.19947266 35.32282715 -49.75097656 36.08276367 C-50.25854492 36.78377197 -50.76611328 37.48478027 -51.2890625 38.20703125 C-51.73000244 38.81514648 -52.17094238 39.42326172 -52.62524414 40.04980469 C-54.48888425 42.69798582 -56.27016935 45.4033009 -58.06640625 48.09765625 C-47.67140625 47.60265625 -47.67140625 47.60265625 -37.06640625 47.09765625 C-36.40640625 45.77765625 -35.74640625 44.45765625 -35.06640625 43.09765625 C-33.73307292 40.43098958 -32.39973958 37.76432292 -31.06640625 35.09765625 C-29.41640625 35.09765625 -27.76640625 35.09765625 -26.06640625 35.09765625 C-26.06640625 39.38765625 -26.06640625 43.67765625 -26.06640625 48.09765625 C-21.00566976 45.25568691 -21.00566976 45.25568691 -18.86230469 40.73388672 C-18.5055365 39.85642792 -18.14876831 38.97896912 -17.78118896 38.07492065 C-17.41640442 37.13109528 -17.05161987 36.1872699 -16.67578125 35.21484375 C-16.28569885 34.24483429 -15.89561646 33.27482483 -15.49371338 32.27542114 C-14.25255891 29.1803821 -13.03394774 26.07705071 -11.81640625 22.97265625 C-10.57990038 19.86316535 -9.33891612 16.75550258 -8.09625244 13.64846802 C-7.32482192 11.71498404 -6.55790462 9.77969234 -5.7958374 7.84249878 C-5.45167786 6.9713443 -5.10751831 6.10018982 -4.75292969 5.20263672 C-4.45046326 4.43225067 -4.14799683 3.66186462 -3.83636475 2.86813354 C-2.64337682 0.12492329 -2.64337682 0.12492329 0 0 Z M-3.06640625 16.09765625 C-3.90626709 18.03233567 -4.73808652 19.97050754 -5.56640625 21.91015625 C-6.03046875 22.98910156 -6.49453125 24.06804687 -6.97265625 25.1796875 C-8.24189928 28.04647649 -8.24189928 28.04647649 -8.06640625 31.09765625 C-4.10640625 31.09765625 -0.14640625 31.09765625 3.93359375 31.09765625 C3.150698 28.78183866 2.35783644 26.47032684 1.55859375 24.16015625 C1.336875 23.50080078 1.11515625 22.84144531 0.88671875 22.16210938 C-0.19549777 18.42188961 -0.19549777 18.42188961 -3.06640625 16.09765625 Z " fill="#EEEEEE" transform="translate(569.06640625,245.90234375)"/>
<path d="M0 0 C7.62278553 4.60771247 12.6879381 10.25842611 15.5625 18.78125 C18.24567833 29.9749499 16.97328537 40.87951533 11.09375 50.7578125 C5.80553161 58.37114568 -0.64841647 62.22946874 -9.55078125 64.48046875 C-12.69020338 64.88895841 -15.76259269 64.95939377 -18.92578125 64.91796875 C-19.75577637 64.90894531 -20.58577148 64.89992188 -21.44091797 64.890625 C-31.7097054 64.60187175 -39.11632875 61.88357285 -46.60546875 54.703125 C-54.5813209 45.59015337 -55.24098525 36.15911282 -54.72998047 24.52294922 C-54.33426232 20.01262488 -52.81483486 16.35058539 -50.55078125 12.48046875 C-50.13828125 11.76503906 -49.72578125 11.04960937 -49.30078125 10.3125 C-39.00742701 -5.27374378 -15.87561243 -7.90459364 0 0 Z M-29.67578125 6.60546875 C-34.52185648 14.03611743 -35.04867806 21.66930954 -34.98828125 30.35546875 C-35.00826172 31.36738281 -35.02824219 32.37929687 -35.04882812 33.421875 C-35.04362879 41.54323505 -33.81544865 50.46101285 -27.98828125 56.60546875 C-23.93611586 59.72251905 -20.55653461 59.90468514 -15.55078125 59.48046875 C-9.96879526 57.02439491 -8.04900654 53.28743237 -5.53125 48.015625 C-1.48157294 37.54454765 -2.06246676 22.145534 -5.56640625 11.6171875 C-7.43739629 7.55595118 -9.79033903 4.77145971 -13.42578125 2.10546875 C-20.28100725 0.08922581 -24.79336603 1.72305353 -29.67578125 6.60546875 Z " fill="#F1F1F1" transform="translate(248.55078125,147.51953125)"/>
<path d="M0 0 C0.74620605 0.00837891 1.49241211 0.01675781 2.26123047 0.02539062 C7.11917001 0.13079179 11.7035082 0.61418249 16.4140625 1.875 C19.44728759 2.53296798 19.44728759 2.53296798 25.6875 2.3125 C25.6875 9.5725 25.6875 16.8325 25.6875 24.3125 C23.7075 24.3125 21.7275 24.3125 19.6875 24.3125 C19.24019531 23.42046875 18.79289062 22.5284375 18.33203125 21.609375 C17.42517578 19.85367188 17.42517578 19.85367188 16.5 18.0625 C15.90832031 16.90234375 15.31664062 15.7421875 14.70703125 14.546875 C12.29896998 10.69025077 9.74455263 8.34102632 5.6875 6.3125 C-0.22939778 5.69274045 -0.22939778 5.69274045 -5.3125 8.4375 C-7.48511371 11.16032938 -7.48511371 11.16032938 -7.9375 14.3125 C-7.13050282 18.18608647 -5.46235139 20.08197075 -2.3125 22.3125 C2.15676558 24.30901239 6.83798125 25.70003696 11.49609375 27.18554688 C18.14981103 29.42608433 24.26891838 31.98337746 27.83813477 38.37207031 C30.38591104 44.19262963 30.14442832 50.31198637 27.890625 56.171875 C24.54522453 62.12408102 19.19434968 65.50173001 12.90209961 67.72802734 C9.04587369 68.7457547 5.27988273 68.75470987 1.3125 68.6875 C0.48194092 68.68169922 -0.34861816 68.67589844 -1.2043457 68.66992188 C-7.25700738 68.54198617 -12.70963137 67.73224789 -18.3125 65.3125 C-18.8075 65.8075 -18.8075 65.8075 -19.3125 66.3125 C-21.6225 66.3125 -23.9325 66.3125 -26.3125 66.3125 C-26.3125 58.7225 -26.3125 51.1325 -26.3125 43.3125 C-24.3325 43.3125 -22.3525 43.3125 -20.3125 43.3125 C-19.9721875 44.02535156 -19.631875 44.73820312 -19.28125 45.47265625 C-15.59363111 52.75962655 -11.4156729 59.61144237 -3.3125 62.3125 C1.99202423 62.65472737 5.41228403 62.83326609 9.6875 59.3125 C11.61613839 56.77020394 11.69652291 55.52904982 11.5625 52.3125 C10.53970099 48.80576052 9.43425909 47.66741665 6.6875 45.3125 C4.30932924 44.14572829 4.30932924 44.14572829 1.6953125 43.34765625 C0.74269531 43.02216797 -0.20992188 42.69667969 -1.19140625 42.36132812 C-3.18059363 41.7064783 -5.17017442 41.05282225 -7.16015625 40.40039062 C-14.06856454 38.03698779 -19.04719379 35.82763033 -23.125 29.5 C-25.55957665 22.96508372 -25.92034668 17.92636852 -23.453125 11.421875 C-18.71398986 2.65772097 -9.33719954 -0.22799402 0 0 Z " fill="#F1F1F1" transform="translate(296.3125,143.6875)"/>
<path d="M0 0 C11.88 0 23.76 0 36 0 C36 1.32 36 2.64 36 4 C33.36 4.99 30.72 5.98 28 7 C27.92555089 12.56841139 27.87125682 18.13652964 27.83520508 23.70532227 C27.82016754 25.59762625 27.79973215 27.48989566 27.77368164 29.38208008 C27.73707601 32.11027586 27.7202231 34.83800871 27.70703125 37.56640625 C27.69154739 38.40522842 27.67606354 39.2440506 27.66011047 40.10829163 C27.65858214 45.50621237 28.44285952 49.21846365 31 54 C34.6189623 57.52848824 37.59099978 58.29323504 42.5 58.5 C47.40028768 58.30691801 50.31228553 57.41113589 54 54 C59.047961 47.21136279 58.21704428 39.29681259 58.24023438 31.18994141 C58.24993883 29.13793368 58.2810024 27.08692947 58.3125 25.03515625 C58.51522769 15.5427471 58.51522769 15.5427471 55 7 C53.03900415 5.56598542 53.03900415 5.56598542 50.8125 5.0625 C49.554375 4.711875 48.29625 4.36125 47 4 C47 2.68 47 1.36 47 0 C56.9 0 66.8 0 77 0 C77 1.32 77 2.64 77 4 C76.44570313 4.17015625 75.89140625 4.3403125 75.3203125 4.515625 C74.59585938 4.75796875 73.87140625 5.0003125 73.125 5.25 C72.40570313 5.48203125 71.68640625 5.7140625 70.9453125 5.953125 C68.35766613 7.34567365 68.01441768 8.23026362 67 11 C66.81032196 13.75395831 66.72295257 16.41455814 66.7265625 19.16796875 C66.70626038 20.8001369 66.68540936 22.4322983 66.6640625 24.06445312 C66.64155663 26.62058206 66.62502546 29.17644286 66.61914062 31.73266602 C66.54019011 52.09992476 66.54019011 52.09992476 60.30908203 58.82495117 C53.94104026 64.91207813 47.30643934 66.54724191 38.75 66.4375 C37.49364746 66.42396484 37.49364746 66.42396484 36.21191406 66.41015625 C28.56723021 66.19722889 21.84045699 65.28782292 15.85546875 60.1640625 C9.66486107 53.58260179 8.70259899 47.1900421 8.5859375 38.4453125 C8.56657135 37.54376434 8.5472052 36.64221619 8.5272522 35.71334839 C8.46775704 32.85066004 8.42119183 29.98793082 8.375 27.125 C8.33679253 25.17706637 8.2977392 23.22914914 8.2578125 21.28125 C8.16208035 16.52096742 8.07793884 11.7606058 8 7 C5.36 6.01 2.72 5.02 0 4 C0 2.68 0 1.36 0 0 Z " fill="#EEEEEE" transform="translate(415,146)"/>
<path d="M0 0 C2.83203125 0.03255208 5.6640625 0.06510417 8.49609375 0.09765625 C11.83361279 7.27223951 14.91682463 14.49982003 17.78125 21.875 C18.56660536 23.87192259 19.35242594 25.86866226 20.13867188 27.86523438 C21.35676505 30.96635106 22.571595 34.06860774 23.77856445 37.17407227 C24.95756138 40.20316552 26.14956186 43.22686939 27.34375 46.25 C27.87984642 47.64375099 27.87984642 47.64375099 28.42677307 49.06565857 C30.66872392 54.70504973 32.47799955 58.72579525 38.24609375 61.34765625 C39.35984375 61.71890625 39.35984375 61.71890625 40.49609375 62.09765625 C40.49609375 63.41765625 40.49609375 64.73765625 40.49609375 66.09765625 C28.61609375 66.09765625 16.73609375 66.09765625 4.49609375 66.09765625 C4.49609375 64.77765625 4.49609375 63.45765625 4.49609375 62.09765625 C7.13609375 61.43765625 9.77609375 60.77765625 12.49609375 60.09765625 C11.9546875 58.72480469 11.9546875 58.72480469 11.40234375 57.32421875 C10.93828125 56.13570312 10.47421875 54.9471875 9.99609375 53.72265625 C9.53203125 52.53929687 9.06796875 51.3559375 8.58984375 50.13671875 C7.49609375 47.09765625 7.49609375 47.09765625 7.49609375 45.09765625 C0.56609375 45.09765625 -6.36390625 45.09765625 -13.50390625 45.09765625 C-15.73995586 52.53878239 -15.73995586 52.53878239 -17.50390625 60.09765625 C-14.53390625 60.75765625 -11.56390625 61.41765625 -8.50390625 62.09765625 C-8.50390625 63.41765625 -8.50390625 64.73765625 -8.50390625 66.09765625 C-17.74390625 66.09765625 -26.98390625 66.09765625 -36.50390625 66.09765625 C-36.50390625 64.77765625 -36.50390625 63.45765625 -36.50390625 62.09765625 C-34.55078125 61.54427083 -32.59765625 60.99088542 -30.64453125 60.4375 C-25.31590131 57.1022444 -23.05991977 48.94692329 -20.7890625 43.3046875 C-20.45144394 42.47740646 -20.11382538 41.65012543 -19.76597595 40.79777527 C-18.69485225 38.17041339 -17.630445 35.54039429 -16.56640625 32.91015625 C-15.85658044 31.16452616 -15.14629771 29.41908179 -14.43554688 27.67382812 C-13.07226696 24.32536223 -11.70987674 20.97653697 -10.34814453 17.62744141 C-8.75917844 13.72297572 -7.16827231 9.81946464 -5.5625 5.921875 C-5.18279053 4.99850342 -4.80308105 4.07513184 -4.41186523 3.1237793 C-3.06559699 0.11956307 -3.06559699 0.11956307 0 0 Z M-3.50390625 19.09765625 C-6.14390625 26.02765625 -8.78390625 32.95765625 -11.50390625 40.09765625 C-5.89390625 40.09765625 -0.28390625 40.09765625 5.49609375 40.09765625 C2.85609375 33.16765625 0.21609375 26.23765625 -2.50390625 19.09765625 C-2.83390625 19.09765625 -3.16390625 19.09765625 -3.50390625 19.09765625 Z " fill="#F0F0F0" transform="translate(524.50390625,143.90234375)"/>
<path d="M0 0 C6.18971858 3.71805621 11.24184419 9.02238755 13.375 16 C14.1569527 24.54692488 14.70397345 33.79108314 9.375 41 C5.84074946 44.81670089 2.62324717 48.06281301 -2.625 49 C-1.56624926 52.40312738 -0.61597846 55.01353231 1.375 58 C4.72925595 58.99721123 7.89207567 59.09951212 11.375 59 C11.375 60.32 11.375 61.64 11.375 63 C6.76353627 64.77911409 2.81041728 65.32484332 -2.125 65.375 C-3.3934375 65.40335937 -4.661875 65.43171875 -5.96875 65.4609375 C-10.22950389 64.92379118 -12.32378843 63.69745016 -15.625 61 C-17.97012613 57.24779819 -18.625 55.47038145 -18.625 51 C-19.78 50.938125 -20.935 50.87625 -22.125 50.8125 C-28.56950756 49.99125302 -32.92933356 46.69566644 -37.4375 42.1875 C-42.53193534 34.76417993 -43.50798066 27.96285852 -42.625 19 C-41.09007664 11.99170654 -37.2947285 6.10170116 -31.6875 1.6875 C-22.60390876 -3.31774415 -9.62539821 -4.39806657 0 0 Z M-22.30078125 5.28515625 C-28.17594019 12.89340042 -27.30959524 23.90332348 -26.625 33 C-25.77350706 37.81852594 -24.27623491 41.08827112 -21.4375 45.0625 C-18.21726922 47.28088121 -16.39314305 47.74820394 -12.55078125 47.48046875 C-9.12704907 46.62627188 -7.68555946 44.76703698 -5.625 42 C-2.59101305 36.24056714 -2.16284553 31.51677275 -2.25 25.0625 C-2.23839844 24.20720703 -2.22679687 23.35191406 -2.21484375 22.47070312 C-2.24568322 15.73227991 -3.19683433 9.86965034 -7.6875 4.5625 C-10.07492163 2.63715998 -11.31152284 2.04274689 -14.375 1.625 C-17.84155311 2.0249869 -19.75714501 2.87504422 -22.30078125 5.28515625 Z " fill="#EEEEEE" transform="translate(271.625,248)"/>
<path d="M0 0 C9.57 0 19.14 0 29 0 C29 0.99 29 1.98 29 3 C27.02 3.66 25.04 4.32 23 5 C22.67 10.94 22.34 16.88 22 23 C28.27 23 34.54 23 41 23 C41 17.06 41 11.12 41 5 C38.69 4.34 36.38 3.68 34 3 C34 2.01 34 1.02 34 0 C43.57 0 53.14 0 63 0 C63 0.99 63 1.98 63 3 C61.02 3.66 59.04 4.32 57 5 C56.67 18.53 56.34 32.06 56 46 C58.31 46.66 60.62 47.32 63 48 C63 48.99 63 49.98 63 51 C53.43 51 43.86 51 34 51 C34 50.01 34 49.02 34 48 C35.98 47.34 37.96 46.68 40 46 C40.33 39.73 40.66 33.46 41 27 C34.73 27 28.46 27 22 27 C22.33 33.27 22.66 39.54 23 46 C24.98 46.66 26.96 47.32 29 48 C29 48.99 29 49.98 29 51 C19.43 51 9.86 51 0 51 C0 50.01 0 49.02 0 48 C1.98 47.34 3.96 46.68 6 46 C6 32.8 6 19.6 6 6 C4.02 5.01 2.04 4.02 0 3 C0 2.01 0 1.02 0 0 Z " fill="#F1F1F1" transform="translate(101,247)"/>
<path d="M0 0 C12.21 0 24.42 0 37 0 C37 1.32 37 2.64 37 4 C34.36 4.66 31.72 5.32 29 6 C28.98541748 7.23041016 28.97083496 8.46082031 28.95581055 9.72851562 C28.89756279 14.32092435 28.82033232 18.91285627 28.73754883 23.50488281 C28.7044236 25.4872256 28.67635356 27.46965989 28.65356445 29.45214844 C28.61978946 32.31224329 28.56746312 35.17150892 28.51171875 38.03125 C28.50213387 39.34736267 28.50213387 39.34736267 28.49235535 40.69006348 C28.2939041 49.11437184 26.28204587 55.99108656 20 62 C12.67678819 67.33500951 2.66910084 67.28165564 -6 66 C-10.40459886 64.4841719 -12.90705285 62.19541095 -16 58.8125 C-17.92678788 53.39340909 -17.91536015 48.17942893 -15.6875 42.875 C-11.98122157 40.28922435 -9.02059264 40.30191411 -4.57421875 40.515625 C-2 41 -2 41 0.6875 43.125 C2.24998102 46.54757746 2.68240672 48.28467454 2 52 C0.49596633 54.19099715 -1.20423203 56.02465524 -3 58 C-3 58.66 -3 59.32 -3 60 C1.64276302 59.65859441 1.64276302 59.65859441 5.8125 57.8125 C9.50215408 52.18092272 9.26696519 46.25479127 9.1953125 39.7890625 C9.19106766 38.33685806 9.19106766 38.33685806 9.18673706 36.85531616 C9.17558696 33.77841572 9.1504918 30.70181172 9.125 27.625 C9.11496352 25.5325563 9.10583884 23.44010802 9.09765625 21.34765625 C9.07566453 16.23165749 9.04117025 11.11587892 9 6 C6.03 5.34 3.06 4.68 0 4 C0 2.68 0 1.36 0 0 Z " fill="#F1F1F1" transform="translate(153,146)"/>
<path d="M0 0 C15.51 0 31.02 0 47 0 C47 4.29 47 8.58 47 13 C42 13 42 13 40.48828125 11.50390625 C40.10027344 10.86324219 39.71226562 10.22257812 39.3125 9.5625 C37.65808423 6.752744 37.65808423 6.752744 35 5 C32.795636 4.77049681 30.58607827 4.58924067 28.375 4.4375 C25.219375 4.2209375 25.219375 4.2209375 22 4 C22 10.27 22 16.54 22 23 C25.3 22.34 28.6 21.68 32 21 C32.66 18.69 33.32 16.38 34 14 C35.65 14 37.3 14 39 14 C39 21.26 39 28.52 39 36 C37.35 35.67 35.7 35.34 34 35 C33.34 32.69 32.68 30.38 32 28 C28.7 27.67 25.4 27.34 22 27 C22.14017826 29.97953359 22.28686342 32.95849304 22.4375 35.9375 C22.47681641 36.78763672 22.51613281 37.63777344 22.55664062 38.51367188 C22.59853516 39.32255859 22.64042969 40.13144531 22.68359375 40.96484375 C22.72025146 41.7137085 22.75690918 42.46257324 22.79467773 43.23413086 C22.81771063 45.02461326 22.81771063 45.02461326 24 46 C26.26500305 46.20511024 28.53904377 46.31412476 30.8125 46.375 C32.05644531 46.42398438 33.30039062 46.47296875 34.58203125 46.5234375 C38.13240805 46.3240318 38.13240805 46.3240318 40.32421875 43.68359375 C41.56595013 41.69508686 42.78826916 39.6944292 44 37.6875 C44.66 36.800625 45.32 35.91375 46 35 C47.32 35 48.64 35 50 35 C50.02701408 37.10409639 50.04640223 39.20829178 50.0625 41.3125 C50.07410156 42.48425781 50.08570313 43.65601563 50.09765625 44.86328125 C50 48 50 48 49 51 C32.83 51 16.66 51 0 51 C0 50.01 0 49.02 0 48 C1.98 47.34 3.96 46.68 6 46 C6.33 32.47 6.66 18.94 7 5 C4.69 4.34 2.38 3.68 0 3 C0 2.01 0 1.02 0 0 Z " fill="#EEEEEE" transform="translate(350,247)"/>
<path d="M0 0 C9.57 0 19.14 0 29 0 C29 0.99 29 1.98 29 3 C27.02 3.66 25.04 4.32 23 5 C22.95049885 9.76886487 22.91423262 14.53757959 22.89013672 19.30664062 C22.88008977 20.92841192 22.86644985 22.55016516 22.84912109 24.171875 C22.82481507 26.50525374 22.81350387 28.8383926 22.8046875 31.171875 C22.79436493 31.89493835 22.78404236 32.61800171 22.77340698 33.36297607 C22.77258846 37.04971276 22.79421177 39.95482486 25 43 C29.23179273 45.59089351 31.84736177 46.34124897 36.75 45.4375 C39.62181295 44.64628623 40.8273465 44.16725808 43 42.0625 C44.91255004 38.11786554 45.12851291 35.02639808 45.1328125 30.6875 C45.13410156 29.44742187 45.13539063 28.20734375 45.13671875 26.9296875 C45.13091797 24.98449219 45.13091797 24.98449219 45.125 23 C45.12886719 21.70320313 45.13273437 20.40640625 45.13671875 19.0703125 C45.13542969 17.83023437 45.13414062 16.59015625 45.1328125 15.3125 C45.13112061 13.60513672 45.13112061 13.60513672 45.12939453 11.86328125 C45.12726873 8.92667764 45.12726873 8.92667764 44 6 C40.49705129 4.28432339 40.49705129 4.28432339 37 3 C37 2.01 37 1.02 37 0 C44.92 0 52.84 0 61 0 C61 0.99 61 1.98 61 3 C59.865625 3.433125 58.73125 3.86625 57.5625 4.3125 C56.386875 4.869375 55.21125 5.42625 54 6 C52.86926631 9.39220106 52.84126744 12.06897159 52.7890625 15.64453125 C52.74652344 17.61969727 52.74652344 17.61969727 52.703125 19.63476562 C52.66196499 21.72143091 52.62505865 23.80786861 52.59863281 25.89477539 C52.5708496 27.91600386 52.52497807 29.93620522 52.4765625 31.95703125 C52.45674316 33.16335205 52.43692383 34.36967285 52.41650391 35.61254883 C51.7557578 40.98643645 49.68962639 44.90383467 45.5 48.3125 C44.61828125 49.04919922 44.61828125 49.04919922 43.71875 49.80078125 C37.69031869 54.00698218 26.33475054 52.73386021 19.27734375 51.5390625 C14.30392505 49.91000435 11.84549136 47.18454612 9 43 C6.91537337 38.80545904 6.6972398 35.16786487 6.5859375 30.51171875 C6.55688828 29.4569207 6.55688828 29.4569207 6.5272522 28.3808136 C6.46779817 26.14982981 6.42120951 23.91879346 6.375 21.6875 C6.33678863 20.16859814 6.29773508 18.64971722 6.2578125 17.13085938 C6.16212584 13.42076533 6.07796928 9.71051349 6 6 C4.02 5.01 2.04 4.02 0 3 C0 2.01 0 1.02 0 0 Z " fill="#EBEBEB" transform="translate(167,247)"/>
<path d="M0 0 C9.24 0 18.48 0 28 0 C28 0.99 28 1.98 28 3 C26.02 3.66 24.04 4.32 22 5 C21.92563245 9.6081187 21.87129606 14.21588514 21.83520508 18.82446289 C21.82015378 20.39093107 21.79970793 21.95735736 21.77368164 23.52368164 C21.73713567 25.78021606 21.72023739 28.03619153 21.70703125 30.29296875 C21.69154739 30.98899704 21.67606354 31.68502533 21.66011047 32.40214539 C21.65860499 36.78922594 22.27675317 39.53394162 25 43 C28.9704121 45.41338775 31.74250685 46.36282999 36.25 45.375 C40.29283147 43.97927104 40.29283147 43.97927104 43 41 C44.70103487 35.89689539 44.22531454 30.46239359 44.24023438 25.12109375 C44.24996586 23.00741603 44.2810147 20.89470071 44.3125 18.78125 C44.31902809 17.43750576 44.32427932 16.09375459 44.328125 14.75 C44.3374707 13.52796875 44.34681641 12.3059375 44.35644531 11.046875 C44.25765613 8.03350285 44.25765613 8.03350285 42.64746094 6.15234375 C40.55338225 4.68760584 38.40356458 3.84449566 36 3 C36 2.01 36 1.02 36 0 C43.92 0 51.84 0 60 0 C60 0.99 60 1.98 60 3 C57.69 3.66 55.38 4.32 53 5 C52.18879847 9.26808122 51.87790489 13.30688363 51.859375 17.6484375 C51.84003906 18.90140625 51.82070313 20.154375 51.80078125 21.4453125 C51.76703004 24.05713721 51.74870579 26.66920853 51.74609375 29.28125 C51.60168709 36.6839915 51.22161531 42.41935261 46 48 C39.55903164 53.41491482 30.93103577 52.80499267 22.94384766 52.22314453 C17.84403366 51.63770997 14.01134451 50.01622641 10.390625 46.38671875 C5.94380706 40.75324995 5.8723503 34.87003022 5.90234375 27.8515625 C5.9037587 27.19417084 5.90517365 26.53677917 5.90663147 25.85946655 C5.91218238 23.78126269 5.92472535 21.70317073 5.9375 19.625 C5.94252136 18.20703282 5.94708315 16.78906393 5.95117188 15.37109375 C5.96213563 11.91402678 5.97936579 8.45702433 6 5 C4.02 4.34 2.04 3.68 0 3 C0 2.01 0 1.02 0 0 Z " fill="#EBEBEB" transform="translate(289,247)"/>
</svg>
